<svg xmlns="http://www.w3.org/2000/svg" width="1024" height="1024" viewBox="0 0 1024 1024">
  <defs>
    <clipPath id="vessel"><path d="M300 150h424l-28 650c-3 73-62 130-135 130h-98c-73 0-132-57-135-130z"/></clipPath>
  </defs>
  <rect width="1024" height="1024" fill="#121411"/>
  <rect x="300" y="560" width="424" height="370" rx="36" fill="#45BCA3" clip-path="url(#vessel)"/>
  <path d="M300 150h424l-28 650c-3 73-62 130-135 130h-98c-73 0-132-57-135-130z" fill="none" stroke="#F2EDE2" stroke-width="52" stroke-linejoin="round"/>
  <path d="M300 560h424" stroke="#FFFFFF" stroke-width="18" opacity=".7" clip-path="url(#vessel)"/>
  <g fill="#F2EDE2">
    <rect x="242" y="260" width="42" height="92" rx="21"/>
    <rect x="242" y="410" width="42" height="92" rx="21"/>
    <rect x="740" y="260" width="42" height="92" rx="21"/>
    <rect x="740" y="410" width="42" height="92" rx="21"/>
  </g>
</svg>
